*******************************************************************************
                   Discipline (2011) DVDRip - RadioResearch
*******************************************************************************

-------------------------------------------------------------------------------
                              General Information
-------------------------------------------------------------------------------
Type.................: Movie



Video Format.........: AVI
Video Bitrate........: 1213
Resolution...........: 720 x 318
Color................: 8 bit
FPS..................: 23.976
Source...............: DVD 2.25:1
Original Format......: NTSC
Genre................: Thriller
IMDb Rating..........: Not yet rated
Movie Information....: http://www.imdb.com/title/tt1869373/

-------------------------------------------------------------------------------
                               Post Information
-------------------------------------------------------------------------------
Posted by............: RadioResearch
Posted on............: 5/3/2013

-------------------------------------------------------------------------------
                                 Release Notes
-------------------------------------------------------------------------------
SEEDBOX SUPPORTED!!

A series of murders are confounding the local police with its residue of 
mutilated corpses. It begins when a sadistic cult murders willing victims for 
entertainment. Professor Lafitte, a rich sophisticated man, whose hobby is 
collecting souls, leads the cult. One of his students is Jack, brilliant and 
obsessed with composing avant-grade music. He decides to compose a concerto for 
synthesizer & samplers that is based on the recorded sound of human screams. 
Jack is drawn into the clutches of the professor, who is guiding him into a dark 
path of self discovery, in his attempt to create a new kind of music. In his 
quest for this new kind of music, he begins to seek out human pain. The 
professor leads Jack into his much more dangerous private activities. Jack's 
girlfriend Claudia and his best friend Benny are journalists for the collage 
newspaper and are covering a series of bizarre murders and mutilations that has 
the police stumped. Benny finally discovers that there is a connection ... 

Not too bad a film.  Just recently released on DVD for whatever reason....
The film took 10 years(!) to finish!

Enjoy!

RadioResearch

General
Complete name                            : G:AVIaviDISCIPLINEDiscipline 
(2011) DVDRip - RadioResearchDISCIPLINE.{RadioResearch}.avi
Format                                   : AVI
Format/Info                              : Audio Video Interleave
File size                                : 857 MiB
Duration                                 : 1h 38mn
Overall bit rate                         : 1 213 Kbps
Movie name                               : DISCIPLINE.Title1.DVDRip
Writing application                      : Lavf53.32.100
Original source form/Name                : DISCIPLINE

Video
ID                                       : 0
Format                                   : MPEG-4 Visual
Format profile                           : Advanced Simple@L5
Format settings, BVOP                    : 2
Format settings, QPel                    : No
Format settings, GMC                     : No warppoints
Format settings, Matrix                  : Default (H.263)
Muxing mode                              : Packed bitstream
Codec ID                                 : XVID
Codec ID/Hint                            : XviD
Duration                                 : 1h 38mn
Bit rate                                 : 1 075 Kbps
Width                                    : 720 pixels
Height                                   : 318 pixels
Display aspect ratio                     : 2.25:1
Frame rate                               : 23.976 fps
Color space                              : YUV
Chroma subsampling                       : 4:2:0
Bit depth                                : 8 bits
Scan type                                : Progressive
Compression mode                         : Lossy
Bits/(Pixel*Frame)                       : 0.196
Stream size                              : 759 MiB (89%)
Writing library                          : XviD 64

Audio
ID                                       : 1
Format                                   : AC-3
Format/Info                              : Audio Coding 3
Mode extension                           : CM (complete main)
Format settings, Endianness              : Big
Codec ID                                 : 2000
Duration                                 : 1h 38mn
Bit rate mode                            : Constant
Bit rate                                 : 128 Kbps
Channel(s)                               : 2 channels
Channel positions                        : Front: L R
Sampling rate                            : 48.0 KHz
Bit depth                                : 16 bits
Compression mode                         : Lossy
Stream size                              : 90.4 MiB (11%)
Alignment                                : Aligned on interleaves
Interleave, duration                     : 32 ms (0.77 video frame)

AVI FILE MD5 HASH  d3e1f862e18f02e1823187fe4ddc4bed



-------------------------------------------------------------------------------
Generated with Cool NFO Creator - http://fly.to/coolbeans
-------------------------------------------------------------------------------
